<svg width="512" height="512" viewBox="0 0 512 512" fill="none" xmlns="http://www.w3.org/2000/svg">
<path d="M284 320.751H321.428V358H284V320.751ZM377.573 320.751H415V358H377.573V320.751ZM358.846 246.231V209H321.418V227.135L335.379 246.249L358.846 246.231Z" fill="black"/>
<path d="M444.89 374.086V322.636H452.895L460.335 315.506L372.197 230.064H361.255V244.873H335.615L320.339 230.064H278.016L189.975 315.413L197.414 322.625H209.199V374.073H186.195C151.792 342.17 142.644 269.81 145.858 215.98L146.423 214.882H146.7C161.747 214.882 175.084 221.954 183.391 232.854L183.475 232.97C189.734 241.173 193.502 251.501 193.502 262.668C193.502 270.37 191.72 277.662 188.518 284.186L188.65 283.882C195.668 282.109 201.772 278.981 206.923 274.781L206.852 274.839C217.661 265.667 224.438 252.283 224.438 237.347C224.438 226.201 220.658 215.921 214.278 207.636L214.374 207.765C206.165 196.772 192.984 189.713 178.082 189.713C173.435 189.713 168.969 190.4 164.756 191.673L165.069 191.59C168.259 189.665 171.931 187.962 175.795 186.667L176.18 186.55C181.055 184.764 186.701 183.738 192.587 183.738C205.623 183.738 217.433 188.79 226.063 196.971L226.05 196.959C226.52 194.672 226.785 192.034 226.785 189.339C226.785 185.149 226.134 181.1 224.931 177.296L225.015 177.588C218.744 160.026 201.832 147.644 181.934 147.644C175.927 147.644 170.197 148.777 164.937 150.831L165.238 150.726C162.036 151.811 159.352 152.955 156.788 154.261L157.137 154.098C156.234 150.177 155.042 146.747 153.513 143.491L153.658 143.829C143.065 120.806 118.774 109.93 99.3573 119.44C93.9766 122.136 89.5467 125.916 86.2365 130.527L86.1643 130.643C100.477 132.032 112.634 139.884 119.616 151.1L119.725 151.286C115.523 149.221 110.648 147.517 105.532 146.419L105.123 146.349C75.2705 140.131 46.8622 155.848 41.7704 181.533C41.2769 183.937 41 186.713 41 189.537C41 194.112 41.7343 198.534 43.0825 202.677L42.9982 202.373C53.1096 191.31 67.7952 184.379 84.1541 184.379C88.8246 184.379 93.3505 184.939 97.6841 186.013L97.2989 185.932C102.222 186.935 106.58 188.382 110.66 190.284L110.311 190.133C108.349 189.864 106.086 189.713 103.787 189.713C85.3577 189.713 69.2878 199.468 60.7534 213.937L60.6209 214.171C55.7579 222.036 52.8809 231.535 52.8809 241.675C52.8809 259.972 62.2339 276.146 76.5704 285.947L76.751 286.065C82.6613 289.939 89.7153 292.623 97.3229 293.626L97.5757 293.65C92.508 285.575 89.4986 275.819 89.4986 265.376C89.4986 255.188 92.3515 245.643 97.3349 237.463L97.1905 237.719C104.69 225.199 117.437 216.295 132.424 213.821L132.725 213.775C115.668 289.075 110.949 341.54 125.021 374.062H84.0216V396H471V374.062H444.89V374.086ZM349.193 323.826H435.454V374.086H349.193V323.826ZM218.455 313.861L278.04 256.098L337.625 313.861V374.086H272.201V328.762H239.112V374.086H218.383V313.861H218.455Z" fill="black"/>
</svg>
