<svg xmlns="http://www.w3.org/2000/svg" width="948" height="948" fill="none" viewBox="0 0 948 948"><path fill="#06C" d="M505.388 655.512C328.454 655.512 184.512 511.405 184.512 334.256C184.512 157.114 328.449 13 505.388 13C682.328 13 826.265 157.114 826.265 334.256C826.265 511.405 682.32 655.512 505.388 655.512ZM505.388 80.9266C365.86 80.9266 252.365 194.57 252.365 334.264C252.365 473.955 365.868 587.598 505.388 587.598C644.908 587.598 758.426 473.949 758.426 334.264C758.426 194.577 644.917 80.9266 505.388 80.9266Z"/><path fill="#06C" d="M573.813 418.195C573.813 418.195 560.944 453.222 509.434 453.222H465.163V264.654C465.163 249.922 478.046 236.051 492.753 236.051H493.138V194.017H360.255V236.051H359.898C374.613 236.051 388.229 249.922 388.229 264.654V424.698C388.229 439.438 374.613 453.217 359.898 453.217H360.255V516.268H605.04V418.19L573.813 418.195Z"/><path fill="#ED8B18" d="M538.052 132.352C498.941 132.352 462.813 144.914 433.64 165.931H520.406V255.046C499.346 258.304 492.327 272.498 492.327 289.515V425.15H516.911C539.611 425.15 557.875 411.138 559.081 390.118H632.714V454.603C681.847 423.292 712.663 369.054 712.663 307.863C712.663 211.154 634.944 132.352 538.052 132.352Z"/><path fill="#ED8B18" d="M529.305 784.314H603.899V858.41H529.305V784.314ZM715.799 784.314H790.391V858.41H715.799V784.314ZM678.475 636.08V562.02H603.88V598.094L631.704 636.116L678.475 636.08Z"/><path fill="#ED8B18" d="M849.962 890.408V788.064H865.917L880.745 773.881L705.084 603.919H683.275V633.378H632.174L601.73 603.919H517.379L341.911 773.697L356.736 788.042H380.225V890.383H334.377C265.811 826.921 247.578 682.982 253.984 575.903L255.111 573.72H255.663C285.652 573.72 312.233 587.787 328.788 609.47L328.955 609.701C341.43 626.017 348.939 646.561 348.939 668.776C348.939 684.096 345.388 698.602 339.008 711.58L339.27 710.976C353.257 707.447 365.422 701.226 375.689 692.871L375.546 692.985C397.09 674.742 410.596 648.118 410.596 618.406C410.596 596.236 403.062 575.787 390.346 559.306L390.539 559.562C374.177 537.695 347.908 523.654 318.207 523.654C308.947 523.654 300.046 525.021 291.649 527.552L292.273 527.388C298.631 523.559 305.948 520.17 313.649 517.594L314.416 517.363C324.133 513.809 335.386 511.768 347.117 511.768C373.098 511.768 396.634 521.818 413.835 538.09L413.81 538.068C414.746 533.518 415.274 528.271 415.274 522.91C415.274 514.575 413.977 506.521 411.579 498.954L411.747 499.534C399.247 464.6 365.542 439.971 325.884 439.971C313.913 439.971 302.493 442.224 292.009 446.309L292.609 446.1C286.227 448.259 280.878 450.534 275.767 453.132L276.463 452.809C274.664 445.009 272.289 438.186 269.242 431.708L269.53 432.382C248.418 386.585 200.005 364.949 161.307 383.867C150.584 389.23 141.755 396.749 135.157 405.92L135.013 406.151C163.539 408.914 187.769 424.534 201.684 446.844L201.9 447.214C193.527 443.107 183.811 439.717 173.615 437.534L172.799 437.395C113.302 425.024 56.6835 456.29 46.5354 507.382C45.5518 512.163 45 517.686 45 523.303C45 532.404 46.4634 541.201 49.1504 549.442L48.9825 548.837C69.1347 526.831 98.4035 513.043 131.007 513.043C140.316 513.043 149.336 514.157 157.973 516.293L157.205 516.132C167.017 518.128 175.702 521.005 183.835 524.79L183.139 524.489C179.228 523.954 174.718 523.654 170.136 523.654C133.406 523.654 101.378 543.059 84.369 571.84L84.1049 572.305C74.4128 587.951 68.6789 606.846 68.6789 627.017C68.6789 663.413 87.3197 695.586 115.893 715.083L116.253 715.317C128.032 723.023 142.091 728.362 157.253 730.358L157.757 730.406C147.657 714.343 141.659 694.935 141.659 674.162C141.659 653.897 147.345 634.909 157.277 618.637L156.989 619.147C171.935 594.242 197.342 576.53 227.21 571.609L227.81 571.517C193.815 721.305 184.41 825.668 212.456 890.361H130.743V934H902V890.361H849.962V890.408ZM659.236 790.431H831.155V890.408H659.236V790.431ZM398.671 770.608L517.426 655.707L636.181 770.608V890.408H505.79V800.251H439.841V890.408H398.529V770.608H398.671Z"/></svg>